{"title":"[18+] Epicenter (2000) Unrated DVDrip x264 Dual Audio [450MB] [E","uid":9526101,"size":472174004,"categoryP":"video","categoryS":"hd___movies","magnet":"?xt=urn:btih:156f4ffe26451fd6dcf78c6c75173c46e65eb87c&amp;dn=%5B18%2B%5D+Epicenter+%282000%29+Unrated+DVDrip+x264+Dual+Audio+%5B450MB%5D+%5BE&amp;tr=udp%3A%2F%2Ftracker.openbittorrent.com%3A80&amp;tr=udp%3A%2F%2Fopen.demonii.com%3A1337&amp;tr=udp%3A%2F%2Ftracker.coppersurfer.tk%3A6969&amp;tr=udp%3A%2F%2Fexodus.desync.com%3A6969","seeders":1,"leechers":8,"uploader":"Xdesiars","files":2,"time":1390754139,"description":"Format                                   : Matroska\nFormat version                           : Version 4 / Version 2\nFile size                                : 444 MiB\nDuration                                 : 1h 44mn\nOverall bit rate                         : 595 Kbps\nMovie name                               : Epicentr (2000) by XdesiArsenal [Team ExDRS]\nEncoded date                             : UTC 2012-10-22 15:14:16\nWriting application                      : mkvmerge v6.7.0 ('Back to the Ground') 32bit built on Jan  8 2014 15:03:17\nWriting library                          : Lavf54.63.104\n\nVideo\nID                                       : 1\nFormat                                   : AVC\nFormat/Info                              : Advanced Video Codec\nFormat profile                           : &lt;a class=&quot;__cf_email__&quot; href=&quot;/cdn-cgi/l/email-protection&quot; data-cfemail=&quot;84ccede3ecc4c8b7aab4&quot;&gt;[email&amp;#160;protected]&lt;/a&gt;&lt;script cf-hash='f9e31' type=&quot;text/javascript&quot;&gt;\n/* &lt;![CDATA[ */!function(){try{var t=&quot;currentScript&quot;in document?document.currentScript:function(){for(var t=document.getElementsByTagName(&quot;script&quot;),e=t.length;e--;)if(t[e].getAttribute(&quot;cf-hash&quot;))return t[e]}();if(t&amp;&amp;t.previousSibling){var e,r,n,i,c=t.previousSibling,a=c.getAttribute(&quot;data-cfemail&quot;);if(a){for(e=&quot;&quot;,r=parseInt(a.substr(0,2),16),n=2;a.length-n;n+=2)i=parseInt(a.substr(n,2),16)^r,e+=String.fromCharCode(i);e=document.createTextNode(e),c.parentNode.replaceChild(e,c)}}}catch(u){}}();/* ]]&gt; */&lt;/script&gt;\nFormat settings, CABAC                   : Yes\nFormat settings, ReFrames                : 1 frame\nCodec ID                                 : V_MPEG4/ISO/AVC\nBit rate                                 : 306 Kbps\nWidth                                    : 788 pixels\nHeight                                   : 288 pixels\nDisplay aspect ratio                     : 2.736\nFrame rate mode                          : Variable\nColor space                              : YUV\nChroma subsampling                       : 4:2:0\nBit depth                                : 8 bits\nScan type                                : Progressive\nTitle                                    : Epicentr (2000) by XdesiArsenal [Team ExDRS]\nWriting library                          : x264 core 129\nDefault                                  : Yes\nForced                                   : No\n\nAudio #1\nID                                       : 2\nFormat                                   : MPEG Audio\nFormat version                           : Version 1\nFormat profile                           : Layer 3\nMode                                     : Joint stereo\nMode extension                           : MS Stereo\nCodec ID                                 : A_MPEG/L3\nCodec ID/Hint                            : MP3\nDuration                                 : 1h 44mn\nBit rate mode                            : Constant\nBit rate                                 : 128 Kbps\nChannel(s)                               : 2 channels\nSampling rate                            : 44.1 KHz\nCompression mode                         : Lossy\nStream size                              : 95.6 MiB (22%)\nTitle                                    : XdesiArsenal [Team ExDRS]\nLanguage                                 : Hindi\nDefault                                  : No\nForced                                   : No\n\nAudio #2\nID                                       : 3\nFormat                                   : AC-3\nFormat/Info                              : Audio Coding 3\nMode extension                           : CM (complete main)\nFormat settings, Endianness              : Big\nCodec ID                                 : A_AC3\nDuration                                 : 1h 44mn\nBit rate mode                            : Constant\nBit rate                                 : 160 Kbps\nChannel(s)                               : 6 channels\nChannel positions                        : Front: L C R, Side: L R, LFE\nSampling rate                            : 16.0 KHz\nBit depth                                : 16 bits\nCompression mode                         : Lossy\nStream size                              : 120 MiB (27%)\nTitle                                    : XdesiArsenal [Team ExDRS]\nLanguage                                 : English\nDefault                                  : Yes\nForced                                   : No","torrent":{"xt":"urn:btih:156f4ffe26451fd6dcf78c6c75173c46e65eb87c","amp;dn":"%5B18%2B%5D+Epicenter+%282000%29+Unrated+DVDrip+x264+Dual+Audio+%5B450MB%5D+%5BE","amp;tr":["udp%3A%2F%2Ftracker.openbittorrent.com%3A80","udp%3A%2F%2Fopen.demonii.com%3A1337","udp%3A%2F%2Ftracker.coppersurfer.tk%3A6969","udp%3A%2F%2Fexodus.desync.com%3A6969"],"infoHash":"156f4ffe26451fd6dcf78c6c75173c46e65eb87c","infoHashBuffer":{"type":"Buffer","data":[21,111,79,254,38,69,31,214,220,247,140,108,117,23,60,70,230,94,184,124]},"announce":[],"urlList":[]}}